<mxfile host="app.diagrams.net" modified="2022-12-21T17:36:40.179Z" agent="5.0 (Windows NT 10.0; Win64; x64) AppleWebKit/537.36 (KHTML, like Gecko) Chrome/107.0.0.0 Safari/537.36" etag="SyowEE4o6eiNFwnH6JrB" version="20.7.4" type="github">
  <diagram id="a16-35YL6x6VXi6B7JwT" name="Page-1">
    <mxGraphModel dx="2261" dy="1876" grid="1" gridSize="10" guides="1" tooltips="1" connect="1" arrows="1" fold="1" page="1" pageScale="1" pageWidth="827" pageHeight="1169" math="0" shadow="0">
      <root>
        <mxCell id="0" />
        <mxCell id="1" parent="0" />
        <mxCell id="4jAgzcxb7TNVVOpYQpje-1" value="&lt;font face=&quot;Verdana&quot;&gt;KONG API GW&lt;/font&gt;" style="rounded=1;whiteSpace=wrap;html=1;strokeWidth=3;" parent="1" vertex="1">
          <mxGeometry x="480" y="240" width="240" height="120" as="geometry" />
        </mxCell>
        <mxCell id="hM7Fsxdu1J80lwQRh11n-1" value="&lt;b&gt;&lt;font style=&quot;font-size: 15px;&quot; face=&quot;Verdana&quot;&gt;Mortgage Servicing MS&lt;/font&gt;&lt;/b&gt;" style="rounded=1;whiteSpace=wrap;html=1;strokeWidth=3;shadow=0;glass=0;" parent="1" vertex="1">
          <mxGeometry x="480" y="470" width="240" height="160" as="geometry" />
        </mxCell>
        <mxCell id="hM7Fsxdu1J80lwQRh11n-2" value="&lt;font face=&quot;Verdana&quot;&gt;&lt;b&gt;PING&lt;/b&gt;&lt;/font&gt;" style="rounded=1;whiteSpace=wrap;html=1;strokeWidth=3;" parent="1" vertex="1">
          <mxGeometry x="-30" y="240" width="200" height="110" as="geometry" />
        </mxCell>
        <mxCell id="hM7Fsxdu1J80lwQRh11n-3" value="&lt;font face=&quot;Verdana&quot;&gt;&lt;b&gt;API Consumer&lt;br&gt;(OneApp/Salesforce)&lt;/b&gt;&lt;/font&gt;" style="rounded=1;whiteSpace=wrap;html=1;strokeWidth=3;" parent="1" vertex="1">
          <mxGeometry x="310" width="160" height="80" as="geometry" />
        </mxCell>
        <mxCell id="hM7Fsxdu1J80lwQRh11n-4" value="" style="endArrow=classic;html=1;rounded=1;exitX=0;exitY=0.25;exitDx=0;exitDy=0;entryX=0.21;entryY=-0.009;entryDx=0;entryDy=0;entryPerimeter=0;strokeWidth=2;" parent="1" source="hM7Fsxdu1J80lwQRh11n-3" target="hM7Fsxdu1J80lwQRh11n-2" edge="1">
          <mxGeometry width="50" height="50" relative="1" as="geometry">
            <mxPoint x="110" y="160" as="sourcePoint" />
            <mxPoint x="80" y="230" as="targetPoint" />
            <Array as="points">
              <mxPoint x="12" y="20" />
            </Array>
          </mxGeometry>
        </mxCell>
        <mxCell id="hM7Fsxdu1J80lwQRh11n-5" value="" style="endArrow=classic;html=1;rounded=1;startArrow=none;entryX=0;entryY=0.75;entryDx=0;entryDy=0;strokeWidth=2;exitX=0.75;exitY=0;exitDx=0;exitDy=0;" parent="1" source="hM7Fsxdu1J80lwQRh11n-2" target="hM7Fsxdu1J80lwQRh11n-3" edge="1">
          <mxGeometry width="50" height="50" relative="1" as="geometry">
            <mxPoint x="160" y="230" as="sourcePoint" />
            <mxPoint x="320" y="110" as="targetPoint" />
            <Array as="points">
              <mxPoint x="120" y="60" />
            </Array>
          </mxGeometry>
        </mxCell>
        <mxCell id="hM7Fsxdu1J80lwQRh11n-6" value="&lt;b&gt;&lt;font face=&quot;Verdana&quot;&gt;1.Request Access Token(AT)&lt;/font&gt;&lt;/b&gt;" style="text;html=1;strokeColor=none;fillColor=none;align=center;verticalAlign=middle;whiteSpace=wrap;rounded=0;" parent="1" vertex="1">
          <mxGeometry x="-10" y="30" width="160" height="30" as="geometry" />
        </mxCell>
        <mxCell id="hM7Fsxdu1J80lwQRh11n-11" value="" style="endArrow=classic;html=1;rounded=1;entryX=0.5;entryY=0;entryDx=0;entryDy=0;exitX=1;exitY=0.5;exitDx=0;exitDy=0;strokeWidth=2;" parent="1" source="hM7Fsxdu1J80lwQRh11n-3" target="4jAgzcxb7TNVVOpYQpje-1" edge="1">
          <mxGeometry width="50" height="50" relative="1" as="geometry">
            <mxPoint x="320" y="270" as="sourcePoint" />
            <mxPoint x="370" y="220" as="targetPoint" />
            <Array as="points">
              <mxPoint x="600" y="40" />
            </Array>
          </mxGeometry>
        </mxCell>
        <mxCell id="hM7Fsxdu1J80lwQRh11n-12" value="&lt;b&gt;&lt;font face=&quot;Verdana&quot;&gt;3. Resource Request To KONG API&amp;nbsp; with &lt;font color=&quot;#ea6b66&quot;&gt;AT&lt;/font&gt;&lt;/font&gt;&lt;/b&gt;" style="text;html=1;strokeColor=none;fillColor=none;align=center;verticalAlign=middle;whiteSpace=wrap;rounded=0;" parent="1" vertex="1">
          <mxGeometry x="490" y="40" width="270" height="30" as="geometry" />
        </mxCell>
        <mxCell id="hM7Fsxdu1J80lwQRh11n-19" value="&lt;font face=&quot;Verdana&quot;&gt;&lt;b&gt;Kong-OpenID-Connect&lt;/b&gt;&lt;/font&gt;" style="rounded=1;whiteSpace=wrap;html=1;fillColor=#ffe6cc;strokeColor=#d79b00;" parent="1" vertex="1">
          <mxGeometry x="480" y="240" width="170" height="50" as="geometry" />
        </mxCell>
        <mxCell id="hM7Fsxdu1J80lwQRh11n-22" value="" style="endArrow=classic;html=1;rounded=1;exitX=0;exitY=0.25;exitDx=0;exitDy=0;entryX=1.014;entryY=0.109;entryDx=0;entryDy=0;entryPerimeter=0;strokeWidth=2;" parent="1" source="hM7Fsxdu1J80lwQRh11n-19" target="hM7Fsxdu1J80lwQRh11n-2" edge="1">
          <mxGeometry width="50" height="50" relative="1" as="geometry">
            <mxPoint x="320" y="240" as="sourcePoint" />
            <mxPoint x="370" y="190" as="targetPoint" />
          </mxGeometry>
        </mxCell>
        <mxCell id="hM7Fsxdu1J80lwQRh11n-23" value="" style="endArrow=classic;html=1;rounded=1;exitX=1.021;exitY=0.373;exitDx=0;exitDy=0;exitPerimeter=0;strokeWidth=2;" parent="1" source="hM7Fsxdu1J80lwQRh11n-2" edge="1">
          <mxGeometry width="50" height="50" relative="1" as="geometry">
            <mxPoint x="490" y="290" as="sourcePoint" />
            <mxPoint x="490" y="281" as="targetPoint" />
          </mxGeometry>
        </mxCell>
        <mxCell id="hM7Fsxdu1J80lwQRh11n-24" value="&lt;b&gt;&lt;font face=&quot;Verdana&quot;&gt;4. Introspect &lt;font color=&quot;#ea6b66&quot;&gt;AT&lt;/font&gt;&lt;/font&gt;&lt;/b&gt;" style="text;html=1;align=center;verticalAlign=middle;resizable=0;points=[];autosize=1;strokeColor=none;fillColor=none;" parent="1" vertex="1">
          <mxGeometry x="265" y="225" width="130" height="30" as="geometry" />
        </mxCell>
        <mxCell id="hM7Fsxdu1J80lwQRh11n-26" value="&lt;b&gt;5. Introspect Response with &lt;font color=&quot;#6666ff&quot;&gt;JWT&lt;/font&gt;&lt;/b&gt;" style="text;html=1;align=center;verticalAlign=middle;resizable=0;points=[];autosize=1;strokeColor=none;fillColor=none;fontFamily=Verdana;strokeWidth=2;" parent="1" vertex="1">
          <mxGeometry x="200" y="280" width="250" height="30" as="geometry" />
        </mxCell>
        <mxCell id="hM7Fsxdu1J80lwQRh11n-28" value="" style="edgeStyle=none;orthogonalLoop=1;jettySize=auto;html=1;rounded=1;fontFamily=Verdana;entryX=0.5;entryY=0;entryDx=0;entryDy=0;exitX=0.5;exitY=1;exitDx=0;exitDy=0;strokeWidth=2;" parent="1" source="4jAgzcxb7TNVVOpYQpje-1" target="hM7Fsxdu1J80lwQRh11n-1" edge="1">
          <mxGeometry width="100" relative="1" as="geometry">
            <mxPoint x="550" y="400" as="sourcePoint" />
            <mxPoint x="650" y="400" as="targetPoint" />
            <Array as="points" />
          </mxGeometry>
        </mxCell>
        <mxCell id="hM7Fsxdu1J80lwQRh11n-29" value="&lt;b&gt;6. Resource Request with &lt;font color=&quot;#6666ff&quot;&gt;JWT&lt;/font&gt;&lt;/b&gt;" style="text;html=1;align=center;verticalAlign=middle;resizable=0;points=[];autosize=1;strokeColor=none;fillColor=none;fontFamily=Verdana;" parent="1" vertex="1">
          <mxGeometry x="485" y="390" width="230" height="30" as="geometry" />
        </mxCell>
        <mxCell id="hM7Fsxdu1J80lwQRh11n-30" value="" style="edgeStyle=none;orthogonalLoop=1;jettySize=auto;html=1;rounded=1;fontFamily=Verdana;entryX=0.8;entryY=1.018;entryDx=0;entryDy=0;entryPerimeter=0;strokeWidth=2;" parent="1" target="hM7Fsxdu1J80lwQRh11n-2" edge="1">
          <mxGeometry width="100" relative="1" as="geometry">
            <mxPoint x="480" y="480" as="sourcePoint" />
            <mxPoint x="400" y="500" as="targetPoint" />
            <Array as="points">
              <mxPoint x="130" y="480" />
            </Array>
          </mxGeometry>
        </mxCell>
        <mxCell id="hM7Fsxdu1J80lwQRh11n-31" value="&lt;font face=&quot;Verdana&quot;&gt;&lt;b&gt;OAuth Resource Validation&amp;nbsp;&lt;/b&gt;&lt;/font&gt;" style="rounded=1;whiteSpace=wrap;html=1;fillColor=#ffe6cc;strokeColor=#d79b00;" parent="1" vertex="1">
          <mxGeometry x="480" y="470" width="170" height="60" as="geometry" />
        </mxCell>
        <mxCell id="hM7Fsxdu1J80lwQRh11n-32" value="&lt;b&gt;7.Request public keys from PF JWKS&lt;/b&gt;" style="text;html=1;align=center;verticalAlign=middle;resizable=0;points=[];autosize=1;strokeColor=none;fillColor=none;fontFamily=Verdana;" parent="1" vertex="1">
          <mxGeometry x="210" y="450" width="270" height="30" as="geometry" />
        </mxCell>
        <mxCell id="hM7Fsxdu1J80lwQRh11n-33" value="" style="edgeStyle=none;orthogonalLoop=1;jettySize=auto;html=1;rounded=1;fontFamily=Verdana;exitX=0.6;exitY=1.045;exitDx=0;exitDy=0;entryX=0.997;entryY=0.967;entryDx=0;entryDy=0;entryPerimeter=0;exitPerimeter=0;strokeWidth=2;" parent="1" source="hM7Fsxdu1J80lwQRh11n-2" target="hM7Fsxdu1J80lwQRh11n-34" edge="1">
          <mxGeometry width="100" relative="1" as="geometry">
            <mxPoint x="100" y="440" as="sourcePoint" />
            <mxPoint x="160" y="530" as="targetPoint" />
            <Array as="points">
              <mxPoint x="90" y="519" />
            </Array>
          </mxGeometry>
        </mxCell>
        <mxCell id="hM7Fsxdu1J80lwQRh11n-34" value="&lt;b&gt;8. JWKS Response with Public Keys Info&lt;/b&gt;" style="text;html=1;align=center;verticalAlign=middle;resizable=0;points=[];autosize=1;strokeColor=none;fillColor=none;fontFamily=Verdana;" parent="1" vertex="1">
          <mxGeometry x="180" y="490" width="300" height="30" as="geometry" />
        </mxCell>
        <mxCell id="3E7MAQnyfCayU_D1aWXP-1" value="&lt;font face=&quot;Verdana&quot;&gt;&lt;b&gt;OAuth Client&amp;nbsp;&lt;/b&gt;&lt;/font&gt;" style="rounded=1;whiteSpace=wrap;html=1;fillColor=#ffe6cc;strokeColor=#d79b00;" parent="1" vertex="1">
          <mxGeometry x="480" y="560" width="170" height="70" as="geometry" />
        </mxCell>
        <mxCell id="3E7MAQnyfCayU_D1aWXP-3" value="" style="edgeStyle=none;orthogonalLoop=1;jettySize=auto;html=1;rounded=1;fontFamily=Verdana;exitX=0;exitY=0.167;exitDx=0;exitDy=0;entryX=0.395;entryY=1;entryDx=0;entryDy=0;exitPerimeter=0;entryPerimeter=0;strokeWidth=2;" parent="1" source="3E7MAQnyfCayU_D1aWXP-1" target="hM7Fsxdu1J80lwQRh11n-2" edge="1">
          <mxGeometry width="100" relative="1" as="geometry">
            <mxPoint x="480" y="571" as="sourcePoint" />
            <mxPoint x="120" y="360" as="targetPoint" />
            <Array as="points">
              <mxPoint x="49" y="572" />
            </Array>
          </mxGeometry>
        </mxCell>
        <mxCell id="3E7MAQnyfCayU_D1aWXP-4" value="&lt;span style=&quot;text-align: left; background-color: rgb(255, 255, 255);&quot;&gt;&lt;b style=&quot;&quot;&gt;&lt;font color=&quot;#212121&quot;&gt;9. Token-exchange (&lt;/font&gt;&lt;font color=&quot;#6666ff&quot;&gt;JWT&lt;/font&gt;&lt;font color=&quot;#212121&quot;&gt; as Subject Token + Client Assertion)&amp;nbsp;&lt;/font&gt;&lt;/b&gt;&lt;/span&gt;" style="text;html=1;align=center;verticalAlign=middle;resizable=0;points=[];autosize=1;strokeColor=none;fillColor=none;fontFamily=Verdana;" parent="1" vertex="1">
          <mxGeometry x="40" y="540" width="450" height="30" as="geometry" />
        </mxCell>
        <mxCell id="3E7MAQnyfCayU_D1aWXP-8" value="" style="edgeStyle=none;orthogonalLoop=1;jettySize=auto;html=1;rounded=1;fontFamily=Verdana;fontSize=10;fontColor=#6666FF;entryX=0;entryY=0.75;entryDx=0;entryDy=0;exitX=0.205;exitY=1.009;exitDx=0;exitDy=0;exitPerimeter=0;strokeWidth=2;" parent="1" source="hM7Fsxdu1J80lwQRh11n-2" target="3E7MAQnyfCayU_D1aWXP-1" edge="1">
          <mxGeometry width="100" relative="1" as="geometry">
            <mxPoint y="450" as="sourcePoint" />
            <mxPoint x="100" y="450" as="targetPoint" />
            <Array as="points">
              <mxPoint x="11" y="610" />
            </Array>
          </mxGeometry>
        </mxCell>
        <mxCell id="3E7MAQnyfCayU_D1aWXP-11" value="&lt;b&gt;&lt;font style=&quot;font-size: 12px;&quot;&gt;10. Token-exchange Response with &lt;font color=&quot;#ea8b1f&quot;&gt;JWT&lt;/font&gt;&lt;/font&gt;&lt;/b&gt;&amp;nbsp;" style="text;html=1;align=center;verticalAlign=middle;resizable=0;points=[];autosize=1;strokeColor=none;fillColor=none;fontSize=10;fontFamily=Verdana;fontColor=#000000;" parent="1" vertex="1">
          <mxGeometry x="75" y="585" width="300" height="30" as="geometry" />
        </mxCell>
        <mxCell id="3E7MAQnyfCayU_D1aWXP-20" value="" style="shape=image;verticalLabelPosition=bottom;labelBackgroundColor=default;verticalAlign=top;aspect=fixed;imageAspect=0;image=data:image/png,iVBORw0KGgoAAAANSUhEUgAAAOEAAADhCAMAAAAJbSJIAAAAkFBMVEW4Iy/////78/O1Ahu3GSfIam+0ABfqx8mzAA+3HiuyAAD25ufkt7rARE22EiK1Ch68LjnWj5TdqqzOd3yzAA39+fny3d69OEH57e7mvcDFWF/w19n79PTszM7ep6ru0tTXk5fThovRf4TbnqLCTFTJZmzNdHrHX2bKaG68Mz6+P0jBSVHlurzZmZzfqKzUio7VOHMGAAANMklEQVR4nO2caZuqIBiGNUjFDMqxsn2dmq0z///fHQE3cEmpqWYuni/nXKUTtyC8GxiGlpaWlpaWlpaWlpaWlpaWlpaWlpaWlpaWlpaWlpaWlpaWlpaWlpaWlpaWlpaWlpaWlpaWlpaWlpaWlpaWlpaWlpaWlpaWltaNhDCwCHx0K35OyHrfTG3/6OBHt+SHBA3bZFrsnEe35UeEZyMz0b8nR0RVqr3pw8xpA+7VWBWhfpne3wcGthwL4HJQq5cnND9qH8eDBcwqLcKe7W1ngVWkxFvx0qn1iKY3FOhUIsZa7jCQGIOxdM0zz6eXCU1ztCIkfw+C8hWzJ14WmxBGOju5boQz+evtE3diQ0Jz/J5BwK787fAPEJrmKR2pqNCHu98/SqleE8Tie9h/4uWiBWE2nwTicmh2nnnJb0M4MuKuwmfxixWp/5GHqg2huQ74TQiNhM/rTbwHqxWh+RLPmfgl/+nxiWfStoQdN77N2WcfDp/ZZisQboax9t68DHGXdJeziwdq+PrcgDKhQTAXAcHALxKOU18Qo+/leD7dgSdeCpkkwkFuzkDObFRAzBwlFLlXztPz1RJG/fRZIHxm+6xctYQGGMqE9oPfuvbBvXpCIwglwjAo/Iny1RD/hBWAAm/T9u9eIMQbuRPzP4AgBo5rfMqICAfG1gf5C0n00joWgRdsg+gvEotdahFcuBiDZWZY3YgQDcqnGsZmvc+G3nxhTgWzFALrsKdBgLd4QCHivL+slvPxfO3vDKt6mCHsGLONb8+jS+e2P5wZwkwGg+Mi+rPTlqG9C4SGJQ/TV/ab8PTtzZNbvZQwml+DrhfmX1lkGfu8ob48VLQQOoOzvAb3vNfAivoSIQzc1/jbU7tX8SLhUvrRLv37QFhGUkI0GeYvpwYQHkzlUTBFJU2Mlqa1fGH8oM6z/sdh56UNDdt14iVC4JUSCnelhHAnXNpHKBA/4epMCojkvYKvTPtWztolQiIbNnWEkmu8A6TQgUyjiTxlb5vzmS3jsxcJ99JfryOUwozbT/klTiStOYE8UC5o7hrNdYkQy8PsgGoIxTFdartzrfIDLSjv6RrtWlhWrQkndYRyMLxaOTPBWrUFNJct3sTWhKR4V0ZYjKRWaZP2AnxrDdhqSWz7Hi7cOsKigVCledJIhFv54JFGu6LleAWhI83ic6uO0IBFf6tCSSvJ+fK1efWGsJ1709Zq82tHadEEqlTyS5b8hf0ycF30VnC/Z7PtcHg0goqEnyphYEu/c4S1hAVfhCvsFfr2wH9JMhLM8BAwgxsCKI2eToAxVnC46wlxIUPBLftKQkfOu0Va70DguAeJndu3slUYZgzIlQzGvZo/Vu/jD+RHv3ZK7soTFtbA8YxXa8jxgi5HES1cIU2HsPjd6DaEMEnjR46a2y2MrRdYT2jJhOcgTQWIX3FCdBAfoDBLgn/i3zoqBYUkwkOSyf88bf9J2Qn6GIOyu/KE0nt7yoIekoXLCaEQWpZsFXl19ZTSI+0iwmfcinDUz7VYsnc4IRaX23fhJZFzXGOlspZWhItkpm5I2MtbyPBYQkhEi00ahq74lnRarfRKhEnaojFh/qFLmeOYUBi6I2ktl7N4bVwKJUI7KL/rGsI2ffjjhB1UcdftCAe17+GPE37AiruuIMTfwocvQifCk9iAkljtTQkPuOquKwgliKXA4Eie8Vop3t6UcJGf+G9HKFv2s9yvwL7UBrVkekPCtRgBvBmhPF12jBSRTOSmtQyUtiLcBajmrmsIpanGHL24gKYvLUt8Qym9WlKoCaGPZZ/zdoTFqEDobV6Ge9lrM/OBj9sSjjeGXJp4S0LD+rrQgESKroVMOOokCsPx8uvcxaU+9Q0JUdPAh2rFh0S4ckGsIKAlwhXZsBsSFla9CrVNOVUR+s2Gwi0JDSCa5OWaK632T0JokNniEuDaUi67egZCA+ILiQvfUQZ8DkIDgcG/6jhkeLpmR8dzEBrQcY7FoAn/I1vnqqKdpyBEzqxkhWfd582CKyt4noEQFxPAnuet9t+n9xsUXT0BISmEnT1sAUBKyk1+J2EhIxd+qi8NF9v6CEI5mTOvqbhR0cMJoWzRFBJ8V+rhhIVyloEDUhF8/bv4cEKrMI/aXqrVeTsbWNfNpw8nLMvHiQq9k3sF48MJC9mqMvW66nbbwwlBhTUjyVZeQR5OiOWiqwqFqnPswwkbl+CEbUsUnoWwuOW2Sj2ihPh4QiSHtitl3yJv8QjLG18OYsRSCrc9AaEB8bnC+5UUqiTyn4GQ1vZPdv66WFYk60Vh5X8KQoPvV7AsYnwkxSCn7tYr9OxcYeF/FsKUNK3ngRgEM9ngUXgRFQmFueHrmsxM7WEj0JUK+CqeS21bxbHfkJDMe5nCXOaSeLkvest8PgyewvxNPBmIP3PnjRT23kRyRddDIf+EXrt5HRouqnTjTqr8UyH5L8SEH8x/5ZSURI1K3jLJ5FEpi4KC7rxlWazPXZalQF2B8NFb59oKIaH5X2Ud5PR+NaFYmVg6BINfTShFoUpHqXhEkP3MpzeUSCqBDktqnqSKxoZzvaDALQmCYNAy+lN6AyKg/pFL1aVlB/k4YjRV4SAcOggKyyjee95bG0Q8LLkBDTzPG9TdJnu/vUCey12pLKrpapYTtWkKhDT+1WptpfXohRvQxLwQ32VXCG8iyXu5iMhbvkYKHmIlYatt6dRYK9xwmVAegxHCcBAAduoBsYLJRnYcpwoTzWMJiVSrTjWe7ofD4dlfliSFVU7ceiwhMooUNVJxnh5MaIBWO/MOKqHvBxPK5xPW6p9yfekFQmgFIEhr2xC2CPvHsaz0EoEQQR7ZFAgRKX9iCDXeC6Y0RiVCRBzXdQjKEyL3aIednvfBpzE02NmRYYHJfrxY77gPhF26bG3dSIACnr7pvgnHpWXaIPowahkw/H2GGFkZbvrEjIa92LsiIpwQkoEf/VpvBd2MEPeTBvCjhEDEMrKseN9nh9b05k+WiOxG6u70UX4h6Dh0zhyna1lAP5xkg6IR4lotHiwQWomVuJikhJhZHSFr7ZGOTvga/e8jO/Ikmr9x7gCUqPMSwqzdK8IeQjJgmSXTy9ZuBBrsdN4rV0VlhIQaiX63u5mbo15MyOpbxxPXHVDjgm+Dpz1Ff3PMokSdIPIQlnb0CKa2vTwDIyEknk0/taNP+4i9kkkokG28zW+1Q8HbhW5cfqh7TSkhbcToYEGIA9pNnNBZ0jAspG/jKg4sBTywszcCB9ENgtHN0HIjZtfiU09MaBD2KYw+RdzLSxxctoNPNDCh9VKTvZgerihrywhpQCE+NxC8xoQspcBD6QibfHsc2yU6HtDWIrcTPwk6lyauT0LIP42HJu23Dp8L2Sofyn0Cg4/zuiQiHH4dyXXFGQkhhUk2YrFTgmnLaZn5KHnya24W0t6wYx+A9kYzQvas+Chnbm+JO0+XoY/d+Ws5H4e9Xjhf2/7w1bgyiZ8jpDDJ3jvWHNpymoGOd42yC+j0QAmTDAl1KZoRsqoZPnmx4ouKjQX02BvLcoJIVukZPFcQ0iUwsWszwlH2tOmjH8V9mMwZ6UJ/mRD4yZ4XNsyVdjCpKSU0c/ZHTMhCYSs31oAfDalISKu52eY7Nq3eM6AUE9LfXaRmV0IoO6h0mVYkNJwRH5tsL5dKDulKQroKp6eQ/gghXdZp+J9lNtqeZnULwu5PE9L3mBpuNFGyvqaq+QrCRXqKbkJILRpvksudGMozDd85ghEz2e56cF/yHh5yR8wKc+nKEtNfqoRsadlBZrLduvywEaFhZucdp4R0CZFjsMqE9KQbD1Ajge06Lzvw60eUrBZ0U/FOXvHp4iyfma9MSO2+cUCNP2p1E6N7J8aEkI6hBIa9f7Tl1FWST0dTJmR1lmyTU2R1g7O5HL/d5XVMCNkyFeeZwVsyGziLqGeTYQrJdYTUj5zt2YblCHS7ebPlQ81+lJDZL2NAIu/JZRkh1nLKPZowMhTsPKuOMHFpKwmpQb8ZMzuQ+Pt935zdJZOUek8srhcOZ6dvXv/AZ3QratFoS3PafZsbrpWEH5DPxRkh4Ldks2nHHHOrm/hb3571x/cw3jIfP388UDTt8MARMlitRm/MvqSZn1JCGoexiTsYCIT0YPM1do0kO8MLNaj5jg7+uTvz73IcPzUx4o3j72nhCd2FG/sUyEhT7eGMxA8iJUwSMogdrxPyWTkl5DZRmJ4rw48XYPMZfj3g4/Au6U648v04ooAgz/Qsdu55tEgOfUPBadrrdHrTYxw63Pv+LB54eOv7/DQkwONtlIV4vh+fwkL4fuykq9C7mVrdkeeH7mTZ4CyhhQB8+/4+WDiaNnPn9UJgEZL52rkb6P+T/sGH7x3fTE+yCzDuf2+zLfbsJI9713uIinxsxbgrXdHLbkX5ne7URipN1v8ZWd59XcO7CwWjzIH5i0I0u/H7TjxvLuh8tT4D+FcJduly2//DbyGLRh7+8BiNlsmxD/9wD1IB1QyglpaWlpaWlpaW1m/RfwkG3zm7ag+3AAAAAElFTkSuQmCC;" parent="1" vertex="1">
          <mxGeometry x="40" y="270" width="50" height="50" as="geometry" />
        </mxCell>
        <mxCell id="3E7MAQnyfCayU_D1aWXP-21" value="" style="shape=image;verticalLabelPosition=bottom;labelBackgroundColor=default;verticalAlign=top;aspect=fixed;imageAspect=0;image=data:image/png,iVBORw0KGgoAAAANSUhEUgAAAYsAAAB/CAMAAAApSh4CAAAA/FBMVEX///8LLUwSs5kbvcs+tmQYn8sAKUkAFT4AIUQADDoAGkCCi5ensLnk5egAJ0jc4eUxRl4Ar5MUN1Xv8vRGWm9wfo+Mx+DU2d4sRmEiO1eL0sTs+vt1vduN2OC+xMtldYcvslu748cAHULL7OWy5uuAzZcAEjwACzp3zr61usH1+/cmsVYAADdMwayLlqJueYg1u6Si3dLf9PDt+PCj2rNIumzH6NBbwHrZ799oybdDV22cprBSydVZaXvV8OuX3eTG7PB3yY9lwoGX1Kjg8uW05Nuu3rwAACqM0aBx0tvV8fR5hpW+6e49xdGr4NYAuMit2OpBrNJYtNao1ukgn5tRAAAMs0lEQVR4nO2c+0PaSBDHQTQ81ICgRUuLNNdiRUtt7Vttvevr1Lb27v7//+USEmBmd2dfeSCQ708KWTbsh92ZnZlsoZCWXv2d2kfnMtOTXu/t6axvIpev07e91dXV3ptZ30euwruAhK+jV7O+k6XXtwiFPzP+nPW9LLn+PlqdqPf6y6xvZ4k1+Ku3CpUbjZnpyypG4RuNz7O+pyXVI5ZEMDP+Gsz6tpZRn494FIHReDfrG1s6saYCrFOPZn1vS6bT1xQKf2rkEZEs9YYmEcDIIyLZ6ZXQVEDlzm1GeqNEkUdEstJrJQofRh4RyUKifYXIaOQRkfSlMy1GNHKjkbZeaU2L0TqVR0TS1UCXxGoeEUlbn7WnRQBjNY+IpKdTtT+LaeQRkdT0xGRaBDrKIyIp6d1RD0pnYrzNbUY6evcISsOlylFkJWVgqvd21re4PFKZj3xWZCgypRTqdc4iOw3kEZG8aCot/YEUvnYqnxi9b7O95UXViy2k9+Gr7+QwjvJwbQoarGBt3Q9f/yZ3pmJ4UsO9BlCzLr5qu4G0d2bf4dzo6RYL41f4hjxEFaMUYd1zgI7FLHZq8CLHu7Dubn70kUXhw4hsxp9SGEfWeYz1ShGoKmSx0YfXFN1my7a3OdIzDoWvl6O3Bm+lE8Pal9JgsXmAUDjltm1nc6Sv/LQIFO4fpEmN3hPbPtUsWnsOYnFwaP0F50gnQhRbz8J3Zc5Umiz2PYSitm7b1TzphXharIw9W0mdTooszrCxqGxbf7850oBAMfVs6ZhteizaGIWztwx2m/dnAYyv4SVkmDA1Fq0mNhaE07tgEvizAEbk2VJhwtRYXKC3i/2lsNtif3aqzugiKkxoX5ojZ8EYi9pNrK84LyL82YlOQs/2ixiFfXRQyqJbxXb7Q6yvODeSk/AVebZCZypG9aCMRauCjIVTXAq7XbivmBa+yXgaXsmFCXuv4zyKIWOx7aJpUZXst1v1tkB1MTx8kfDFTfldtzbrQFEv6DV7H6OjnBY+jBfhtUyY8MjabI8kYbFewyg2iI+oDxtlSt72GT+szer0gmpz9FKrUcUN+7tDYjhbGxcVfKkbXrl/DF78rqBJ670GC3GYMG5BLc2iy9jtHfEHtParHvZ7kdwab/Ab4HpnN3hlc6/CNfTKQk9h6JZdpj/XHU2u5/AzqrYspP4sgPExvByECWMXmpMsNnHowyXs9qbLjSKrGrs/5Fi0K66w4S7XXetDTQDeOQ587WRYKPzZqULP9nRqKmJn9EgWDTQ8jite+ltN4ShiVRq4EcuiS00sPuDSIMj3zxJiofJnpxPjJGzwJbTfSdSYUyx2sLHoE3Z7WzkrAnnPUSOGxeEB2bDK7C2HZfLKYTIsdGcFCBOOzpNKooyWYLGBx4ey24fYppA6RigRi8YZjSKyJhMxTjZS/+Y5nKK2LNQO7RTGOEx4FGeDByRmUcerBvO7nmpPYrWhXJSVbaBW0pnloSE9q0kuxRbd2l5IwoIcjCgB/qSXzGMXYhZ7yAq4DaJxW/KTxkJD09Ak6Kvchf01NIyTqEMjPTOAEXq2g4SetRey2EcvOg71vda1rEWgGlzkDFh4Q9COce2ksmcxEKf0xHpp24tIIhYbOAx1TO63P8BBrXACb6JFilmjGKHffgXuMQ6h5Xa57uKuUZ3z0E19acBiJckCWszC2+h2uxv451cmi6FaDvj6zZsdVuBDnCZoh1nImhUr0FLBe3X3uXboY81ZdEq35+FffxisUs9Mu5GIWWa8crmMDaS3T7atAy/K4fdlyLJXwP4E+VFNtlWrCN5G8+kCTBnBWK/H8mkvS6XS7VX49y8DGO8N+5FIteSTdttXF6wZKhawkMeEBdztNeFY89GqmzgsHt+WAhifwv8sPNsEpGDhuJLvBF1MJQvgENmyOJaPdRwWD0cofBg/wv/fG8D4atSTRAoWB11J2yFoq2IBHSlLFnXoUiQ7L84jFD6M6/AVc882vuQsPGkR840BC+icWrJAgeMk50Xn5wSFryibrY1iJTHPVs6iQgTKQ0FbqrTdoMTNkgVyaRNkcV1C+hm+auLZniTj2arWKCqBFGjbhAXYKFiy2IAOXnIsLkuMZubZqmy3J0lWNkxYgBl2p1h8umVZlB6G71B1nCIYTzV7k0rp0wrGeCw41ioWLti0WbI4g3vQpFhc8ShKt4/D90zChC/0upNKGVKS1EQ1TViATdsdYnEuQOHDuAzfNXGmEvBs1eG9PunWwphDBiyGibPo/BSRCGCEzhRR+S+G8VGjQ7kYFhXPqzEZZadKlUW52c4LzCKB/cU1QWLq2erU50zUUfcoF2bRbxdaeDCKdNlBAUZUs2ChGGtTFj+E61OkyLPVrAoZTYwTZY8KiWLmXRhs8FUbitvCpkoWYFATYRF7XggcKLhKRWFC7VqEBMKEwlwSU6VWrIpNhhGLuzYvRA4UgmERJozp2YpzrLs4mUlU0mZtL5Jg8TjSuZxEaRaeLVV7gFgUK8InuhGu+bDdV7eRlCh8ZR0mJGpymAcvxMm9jPcXCfi0j7UYTBSFCU082zhhQqpWjS1CEyW9jfbdID2YyF7PZl5cm6EolcJmRp5tjDAhxYJ1bB3BYQe7BiwqdyAG0jEkkXWYkKynZR3bCp/3/jBncVpql00rW8+Wrvm/YR1bLnyedf4iJguVFyuEkWUCXPIsDOPYFsvsEr2TbV4vZi7J0G6PYVyGrU0S4L9kAy6RhEWd8aW48LlRvhs4YjPJsRrb7bGy82xlz+uxjq3HZFyhMc2gDgTXHhiyGFiS8BWdjaONYsU2AS59pph1bJkjcg4N6qP6CdRHxanJUe+zSVkkwO08WykLVKQZDBwuwYc/VKXtBi1tWaA7NasbfGi7QpWmzlTqnq383IMuU9SPqwhb0Lg3b1ihwtgiaGfLAvpt7sU+K0k9rTQ8roaRUQJccR7IDhOYwqdHoW8vrzPfJpqZsED36nKi68xlSSMtGFGYMGXPVnVm0S5epXD4/IaxJ7RQ0Zstiy75tB4vxCImCjvP1jwBrjw/ilml0AOtzCPgEh3AD7ZlYfssTAy7PVYUDCmcGMAwToCrz1VjfoxodBjbTgqnaW1ZoKCLPos4dnuscS471QS4+rzBbXb7DXbQ0ocZ4eciZ9iahe5js4hFPLs90theFIwS4CumCXCNczjZHyPcKrBxErGYZ+atWXDWS4NFJ4FZcQ5uwSRMaOjZapxPyzq2jjM1GXXJE9fTAWUOobBn0T7WhTFhYR6c5YUWm/Q8W51zm/clGdf2gXJmVCrMp9qzKByqu8MsErDb41jtWKklwHVYMI97h6dvjFVvVNlza5Dcg202CxWDRaHtd2fAQl54o6dz9g7TChPeHNeAvotZtNFFwXUw43p4Uaz1yzWByv1a8YKv59kDF5ddjoUH3u7zdXLdi6In7E6w17tMAMUt5w6llQDvbkCdEeWa+CpfOEjYqrcP2StGV7WFbPG13NuSjiLV211Bfx+4GIh5UlWgT3z/2ZZ2zqP4s1mSsNs/RV2ZhAljl3bOozgWNklVTtfCvrIs7ZxHsedH2SVVsVgfaqLZPAE+N2JZGIz4VYcS2VsWCfD5FWJRNmEhtAkqzeIJ8LkRYuGZsLBydWbxBPid06FAgfeLHnF2WtosxskJU83sbKO7o9b30WHA473idK+HHpPa088gUeZZqVmdbXR31MInjYkVxE40UUQhjt8PKN0jb8UkTLiYq5ROAqsy1GYRrh6Xa7RoGAaebVajk6104vTBIwpaJKJzcToSFGtrP8h70fZsF3XDp06zj5JXWiiijN0/UhZr4s13IM0E+OLu99jnEThrMcp26aCIytAeyFGs/UPeimaYcIF3GBvSmeF6o5C+BovxJu+3gsXav+StvNSaGFsLHK0dkqcUO261EUbqNVhMRkg1MST2Wy9MmP6QzE43x2WB+tXy3iR5pV6hLicfJ7fdgX6Tt6Lh2SZzptGdVVeo9uY0G6ZEATd5ylVKYr/VCfAljA5iqVjgPPa/Shj0kq8MEy7oTk9fKhY4RKRepWhnSp0AX8xwlL4UKxS75vynhPGA7Erl2S5mNMpAchSPuesV+701mf2WhwkXd6enKymKK/569Solsd9Sz3aBd3qakrEQZvLuqWHQ9lsWJlzknZ6eZCzEg6NepWj7LQ0TpvQN50eSFepS3OJaPTFo+z0gWSxlVQ4WjeIh1UTNgp4YtPlO5PDa+RbJgitWHkvDetOuFL37TuC41HmXobEoaK1RdHeS/d7Sm26KBbfJm0q93aPDtZLY+VJW1GIRKPhN3kRqp5b+hf/aIrXYQVotPRRKVoHz+55KdNuv90nl5uJ/hEq1IrTBEgwAAAAASUVORK5CYII=;" parent="1" vertex="1">
          <mxGeometry x="530" y="290" width="139.96" height="45" as="geometry" />
        </mxCell>
        <mxCell id="3E7MAQnyfCayU_D1aWXP-22" value="" style="rounded=0;whiteSpace=wrap;html=1;shadow=0;glass=0;labelBackgroundColor=#ffffff;sketch=0;strokeWidth=2;fontFamily=Verdana;fontSize=12;fontColor=#ea8b1f;gradientColor=none;" parent="1" vertex="1">
          <mxGeometry y="760" width="720" height="270" as="geometry" />
        </mxCell>
        <mxCell id="3E7MAQnyfCayU_D1aWXP-23" value="&lt;b&gt;&lt;font color=&quot;#00001f&quot;&gt;On-Prem&lt;/font&gt;&lt;/b&gt;" style="text;html=1;align=center;verticalAlign=middle;resizable=0;points=[];autosize=1;strokeColor=none;fillColor=none;fontSize=12;fontFamily=Verdana;fontColor=#ea8b1f;" parent="1" vertex="1">
          <mxGeometry y="760" width="80" height="30" as="geometry" />
        </mxCell>
        <mxCell id="3E7MAQnyfCayU_D1aWXP-24" value="&lt;b&gt;IBM Gateway &lt;br&gt;(Mortgage Contract BaaS API)&lt;/b&gt;" style="rounded=1;whiteSpace=wrap;html=1;shadow=0;glass=0;labelBackgroundColor=#ffffff;sketch=0;strokeWidth=2;fontFamily=Verdana;fontSize=12;fontColor=#00001f;gradientColor=none;" parent="1" vertex="1">
          <mxGeometry x="254" y="780" width="226" height="80" as="geometry" />
        </mxCell>
        <mxCell id="3E7MAQnyfCayU_D1aWXP-25" value="" style="edgeStyle=none;orthogonalLoop=1;jettySize=auto;html=1;rounded=1;strokeWidth=2;fontFamily=Verdana;fontSize=12;fontColor=#00001f;exitX=0.718;exitY=1.029;exitDx=0;exitDy=0;exitPerimeter=0;entryX=0.473;entryY=0.033;entryDx=0;entryDy=0;entryPerimeter=0;" parent="1" source="3E7MAQnyfCayU_D1aWXP-1" target="3E7MAQnyfCayU_D1aWXP-24" edge="1">
          <mxGeometry width="100" relative="1" as="geometry">
            <mxPoint x="390" y="690" as="sourcePoint" />
            <mxPoint x="490" y="690" as="targetPoint" />
            <Array as="points">
              <mxPoint x="600" y="680" />
              <mxPoint x="360" y="680" />
            </Array>
          </mxGeometry>
        </mxCell>
        <mxCell id="3E7MAQnyfCayU_D1aWXP-26" value="&lt;b&gt;11. API Call to on-prem IBM API with &lt;font color=&quot;#ea8b1f&quot;&gt;JWT&lt;/font&gt;&lt;/b&gt;" style="text;html=1;align=center;verticalAlign=middle;resizable=0;points=[];autosize=1;strokeColor=none;fillColor=none;fontSize=12;fontFamily=Verdana;fontColor=#00001f;" parent="1" vertex="1">
          <mxGeometry x="345" y="695" width="310" height="30" as="geometry" />
        </mxCell>
        <mxCell id="3E7MAQnyfCayU_D1aWXP-27" value="&lt;b style=&quot;border-color: var(--border-color); color: rgb(0, 0, 31);&quot;&gt;Mortgage Contract MS&lt;/b&gt;" style="rounded=1;whiteSpace=wrap;html=1;shadow=0;glass=0;labelBackgroundColor=#ffffff;sketch=0;strokeWidth=2;fontFamily=Verdana;fontSize=12;fontColor=#EA8B1F;gradientColor=none;" parent="1" vertex="1">
          <mxGeometry x="242.5" y="930" width="227.5" height="60" as="geometry" />
        </mxCell>
        <mxCell id="3E7MAQnyfCayU_D1aWXP-29" value="" style="endArrow=classic;html=1;rounded=1;strokeWidth=2;fontFamily=Verdana;fontSize=12;fontColor=#EA8B1F;" parent="1" edge="1">
          <mxGeometry width="50" height="50" relative="1" as="geometry">
            <mxPoint x="360" y="860" as="sourcePoint" />
            <mxPoint x="360" y="930" as="targetPoint" />
          </mxGeometry>
        </mxCell>
        <mxCell id="3E7MAQnyfCayU_D1aWXP-30" value="" style="shape=image;verticalLabelPosition=bottom;labelBackgroundColor=default;verticalAlign=top;aspect=fixed;imageAspect=0;image=data:image/jpeg,/9j/4AAQSkZJRgABAQAAAQABAAD/2wCEAAoHCBUSEhISEhIVEhgYFRkYGRQaGRkQEhYSGRgZGRgUGBgcITwlHB4uHxgYJjgnKy8xNTU1GiQ7QDs0Py40NTEBDAwMEA8PGhISGTsoIyE0NjE9PTFANDExMT8/PzExNDExNUA0NDQ0NDQ/NDExMTQ0MTE/PzQ0NDE/ND80MTE0Mf/AABEIAIABfAMBIgACEQEDEQH/xAAcAAEAAQUBAQAAAAAAAAAAAAAABgECBAUHAwj/xAA+EAACAQMDAgQEBQEFBgcAAAABAgMABBEFEiEGMRMiQVEHMmFxFEKBkaFSIzNiscEVQ1NykrIkNILR4fDx/8QAGQEBAAMBAQAAAAAAAAAAAAAAAAIDBAEF/8QAIREBAAIDAAMBAQADAAAAAAAAAAECAxESITFBEyIEUWH/2gAMAwEAAhEDEQA/AOzUpSgUpSgUpSgpTNUoTRyfCm7nFN1azWNZitI2klbA9u7H7D1qmj6xFdxiSJuPbsR9x6VLmdbRi9W2zTNUBqtQ3CZQUoK6K0pSgUpSgUpSgUpSgUpSgUpSgUpSgUpSgUpSgUpSgUpSgUpSgUpSgUpSgUpSgUpSgUpSgUpSgUpSgVTNVqlBax7VgaxqSW0bSSMAB/JPYV66hepDG0jsFVRksewFcr1G9bVJS7E+Aj7EjHHiSHsWI+3FW48fU7+M+bLFY5+tL1HrD3ku+TyqvyR+w/q+9U6f1V7OUSJnax86flI96zLvQMyRpGdu9yjoeTHj82fWvHWen3t50tgTIzIWX0yAccn0rfXjXMvNnve4dj0nVEuY1kjYEEdvUfQ1sAc1w7p3WpNOlw2dhbzqfQ/Suz6derNGroQQRWHNhmsvRwZu40zBQVQVUVRDSrSlK6FKUoFKUoFKUoFKUoFKUoFKUoFKUoFKUoFKUoFKUoFKUoFKUoFKUoFKUoFKUoFKUoFKUoFUqtWA80FTXmWAHf6UllCgk8ADJPsK5V1b1jJJJ4dq5REblx+Yj0GanTFN58KcuatI8vb4m3kvixwHIiYbvZS4PALf6VGtH1LwN6MMKXD7hztdQAGqY6VqkWq27WtwAJVHBPc+zA+9QXUrF7aV4W7g9vdTnBrfh9cTHp5uaZm3UT7Sy13Xao8YG1X3G5J2MW3cjZVb7CzShpJZDIm3xlTeYwOcDAxWv0CV0tlA3yI7lTGo3BAG+Y1sNI1SKB54XdlxIzBhzkEDy5rk1mbadi0RXaMa3dLNIgj8+3yliNpc8dx+lSX4Z3konaFctEAxYnna/oua0DWrXt462qbFc9wOEHYuf1qR6vqEemw/g7Q/2xALS4zyfUtUsk7rxry5inn+nTw1Xg1y/o/rFg/gXTliTw9dMicEAg5Hv71518U0ny9PFli8PU1YxNX5rB1QSGGQRHEmDs+9Q2t0zCT2/mgb/wC+lcI03V9ZkvWsvxRDRuN/lXG0+bHbsRW7+JOr6lZyGaOfZCVQKuAfP2Zu1dHXAc/uabu/0ri9ze63aQi6kuPGjVQ7LtC+U84yBUo1rV7u60mG7sn8F8K7/VNuSORQdAJxTJP2riHw+68uZNQWG8nZ1cFFQAbfEz9B9DXZdTuhDDJIxwFQnP1xxQZJJ7jnjt2qu7Hf/wDK+edE601W9ukt4rkgyPkAhSFUckdvau/Wat4aiQhm24Y+5oMn1q3cT2/niuWfE7U9Ss5Wnt7jZbhUAXAPnJIY9q10La/4STi43gqHCbQCV77c4oOz0BqCdA9aG9MlvcJ4c8fdT6/rU4btljigvq3d/wC1WJKCCc8D19Kw9TutkErowBVTgj+qg2ANN1QL4Wa3NdxXZuJvEZLhlTOAVQAccVOmk2/MQKD0zVMn2ryaRQOWAz2J9ftUH+I9xfxok1jOIkRWMnG7J4xjIoJ4CeaB/fiuHaPqmuXFuLyO4MiebybV5CHDcgcdqnvw76x/2kkiyLsljxvX6EkA/wAUE13Uz6VaZQDgkA+1GYAZYgfWguJxVQa8klU9mBq8j9KCozVA2a8jMgONwz969C2BnjHvQX5oDVitnkHNWeMpO3IzQeu6rqsDCrqCtKUoFKUoKGvNj9e1Xk1zvr7qoxl7S3PnIw7D8mccfQ88VKlJvbUK8l+K9MPrvq3extbZyAP7x1/lR/rUGtomciOJGc4zgccD71tOlbdWvIo28wzuYnnJyO/711vUpYbOJpmQYGOABnk4/wBa22tH+PqHnxjt/kTNvjiC3DRybgzRuh9OGU/WpJ03pQ1HxpJpi0ynC5PO3aOcD05rpVzaRSwF1RQGXIO0ZGa4vbXTQTNJG+1kkcDHAbzNjdjuKlXJ+kbr7QtinHOpesgns5ZIdzRnPJ7BhzhhXja2r3EyxoCzsc887vdq6F+Hh1q2DL/ZyoeT+YN2yax5Y49Fh27hJcSdmIGR+lP2+a8n4zrr4juqWraXKgimG5lO/B7djtNYdrpE84aVj4aOSTK/mBJPtVNKiN1df2pL8l5M85TPyj29K2moXckrutv58Ef2fyKgQkqSPXNTjxOp9q58zuPTXXXTkqKGjZbhV5LJ5duPU5PNS3oPq4Hbazt5s4Qnuceh+tRjTtXkEnnJRw5fZgqjk8FStW9TW4EkdwuY/HXfxwUdcAAEVy9Ov5n6spfmdw7arE8fz71ePt2qDdC9Umcfh58CRRx/jT+oVM7i4WNGd22qoyW9hXnXpNLal6eK/VduW9PMx6j1A4PdM/TyLXv8cv8Aykee+4fb5hWl0DXbddeu5jMoSRkCNnhyFAwK2Hxs1OF4UhWVTICrGP8ANtJBBqKxq9d+IK3Fitksbx70WNpJF2oqnCls+wqf2FitvovhpIsu23+dflY7QOPpUc6i6p059LaESRSOYlXYhVX3YHFU6TufwugMbuTww+8R7zg4b5AM/T0oIDY2pSzk1FB57e6APp5mbt+z10j4hayZNMtok8zXbJFkejHHeo/8NJYJrLUbNnUvJJI6IeWK7FUNitN0TBNdX8NpcsSlozSepCvGy9zQbPp7Sxaa5YxqMNscOPrsau4D29PSuJS67bHqGC5WdGiy+XB8vmUqP5rtKSBgGByD8p9Dmg578bWxYAe7D/uFTXp7P4S1B/4SZ/6RXPfjXqcJthAJAZMg7M84yOcVudK66sIrSBTcoWWNQU3DcGC0Eb1iEQdSWjx+XxGbeB8p2occV7a7q13ql+1nYyNBHHw8oGfP6qaxuk0fVtXbUWVkhjOY88fl2mmhaoNG1O7iuhsjmkeRZTwo3HgbqDE6q0/VNMtnzdtcxvgFgNhjxk7hzW107Qrq40VXa8bc+J935thUeT7VT4l9cW01m8Fq6zmQFWZfMEX3PtW86NvY5NERUYEpbhXGezquCKCG/DDT3hS6vmnOyJ3Uxejuv5j+1ZWl2+p60z3cd2bSEsQgxvBCnB9e9eHQM8ctnqdn4oSZ53dE/MygAcD71svht1db2dp+CvG/DSQs+d/lDbnZsD7UEb6gGpQXNvYy3bNvbyTDy7kH0rpWv2bQaM0UkhkZYwC/5mOPmNc+616rgvNStGRgIYm5l7KT6EN7VPuuddthp2TKg8ZMx5PzgD8tBF+gesrWz0hY5ZAHXxPJkbjudiMLWq6R1hrSHUNU8MAT4WJfy+IpYbf1zWx+GPTmmXlnH4qJJcAvvXPmA3NsyP8AlqSfEnQM6cgtUwLdxKEAzu2jtgd6COad0xqt7F+Le/aAvl0iK7iAeQAc176BqN3cpcaRdytHcKCyS/7xkU/MPvW86c+IdobWMTzJDIqYeNjtbcO4ANajpCV9S1mXUlTbCkZiB7biCCjD3BoMb4apcLf3cdzdO/4UAFDwrFt3P8U6N62kuNYmjkkbw5G2RxH5VK5zt/6Sa1/Wt5JpmpzPCuWukVsZ4L5Kj/Ortb0n/ZtnpuoKmJI9pkI9XcEN/LGgodLvJ9ZlskvnCgNMW7hUL/IPbhuK2t3fXmpXj2VrcG1jtgEebuXcf6Vm/Ci1eZbu+lHnmfyN3IQqOKisdhDBqd3FqE0lqrtuSUO8CMv3UjP60G4uZLzRZI53vDeW7uEdSPMpbjOfU1g/EOS8tr23nt7hnE+CkK8DK4yvPvV95YaaZEt0mlvizcIJZJAhHqw3ECvfr7ULeK80qPxlP4dm8Rc/IrBSC1BNOg9Ou4kkkvZzI0pDKh/IP6RUuB/zxWPYXSSxpJGQykcH7VkAH3oL6UpQKUqhFBa65rk/xB0B45nu0yySfP8A4TgKD+1daNYt1AsiMjruUjBB9asxZOLbVZsfddOJ9L3iRXccj9sbC335z/Fdc1ZBPbMIyG3bSPXPmBrl3WHTbWb71yYmbjH5Mnsf34rB0bXri0OInLq2fIx4H1zWvJT9tTDBiyTi3FnY729SCHLsFwvauFv53cqpbc77VAyTlic176lqUt026Z2Y9go7A/0itt03dpaSyPdRsrhPIpGfQEGp46fnH/VeTJOWfPpKOn1j0iDxLl8PLjK+wA4H7V5dW6emoxJe2jlyinKj8y9zx71CNY1V7uRpJThT8q/0/as7pfX3tHHrE3zIOQv+IfU1H8vPUe0/1nnn4s6YlAuHQna8iMgz33k/KfbtV0n4m2k/FkqhDFBn5iqNt+T2PvV2sOLq6eeziZVQby6LghgPmOfWtZdak9wweVt5ACj2Hpk1dEdTuVNp1GoZLGa7kkmXG9fMR2Yg8AKB37VmdRsUhs0kwHERLn13AjOR6Vp4Ll4X8SNtjKPmHbP0qWdJ9ONfym7u8suR3/3hxwSPao3tx5n47jrN/EMv4edNMXF3KCq4OxDwTnHmb610e6tkljaN13KwwVPrV6RhAABgDAAFeGp3yW0UlxIcKiFmPoAK87Jfu23rYacV0i8/Q+lwgM8MSYOecA/avS+0DTb53uJFjkbaAzHBYKo4xXPNM0m46iuJLmdylurFUUHgdsqp/Stjqfwtmtsvp87KWUq4PJZD3FQWJbYdDaXKqyRwRyLnuFHJFb7U+nre6ijhljVkRgyqRwMAgVqPhto8tlYJDKArh5CfqpYkH+av1vr6xs5PDlkJYn8oMmP27UGRpHRdpayiWKFFYAjIGMZxQaVZWLy3BRImlJDOBgsWJ3fuTWFqXxDsLdImeRmWVSy7VL8DHfb271Efi/1HbyQpbAvvKpIBggbG7c0Esh+HunHa6QIQcFTt9PepbbwLGgReFHAH0qN9G9RW9zZq6MVWNArsw2Abe/esU/EvTvG8HxW3btudh2bv+btQbHWOjbS7lM00Su5AXJGeBWEvw605Tk2yHnttraa31Pb2cC3Mr5jYgKVG/OSB6VjdNda2uovIlszkoATlCnlOcHn7UG60/T47eMRwxrGoGAo4GKxNZ6ftrxQLiFJMcqSM4P0q611yCRJGjfeI87sckY71HbX4l2EkyW6O+9n2DKMBuJ298e9BnW/Qtgkcka26YcDcduMgHIrN0zpq3tYpIoY1RZCdwHAwaw9e64srJtk8hz7KC5/XFeF98QrGKKOV5CVcAjaC559wKDJ07omzt5Fmjt0DrkhgMHJq/Vej7K6fxJrZHdu7kZOBzisLUviDY2yRPI77ZVZlwjNwMZ7D617r1xaGz/GqzeECRnad3DbT5e9BW66GsJEjRrZMJ2GM8e1el50bZzJBHJAjJCpVFIyFQ4yB+wrx6e65s71pFhdvIu92ZSigHPqaxD8S9PEkkZkYMgYsdpK+XuFPqaDcaH0ra2btJBEsbMMEgY4rdbeMHn/UVh6Rqcd3ClxCWKOMrkbTj7Gs0f5UEXuOgdPkdna1QsxLE7R3Nb7T9Ojt4xFAixoOygYFZZ9qUGl1fpm2u5I5Z41kZMYJGTwc1k6po8V1EYJUDJ/SeRWxI+tU2+mT96DA0rS47WNYYECIv5RwPevHWOn7a8A/EwpJjtkbsVtuc0AoNFo/SlpaMWggRGP5gMHHtWJqHQtjPI8skCMzcliMnipQP1qgHoP/AIoMWwsUgjWKMYUdh9KzBVB7fSg9KC6lKUClKUCrauqz3rkxsYd/ZrMjJIoINca6l0FrGQrtZo2+VhyR/hzXcCDXlNbq4AZQ33GauxZpoz5sEX8uV9L6IkEf4+98ijlEbuTz5j75rS6heHULxMqI97hE99oz3ra/EG5ka78KTKxoPIo4Vhxyas+HsMD3JM394P7tT6DjtWuJnnufrDasRbj/AE3K9P2NjIHupgWwCqFsDjnlT37VZqPS0F+fxNnMiAjzj5l/YdqzdCt0uL68e4Ad0YIit+WPntmr7K3WHVJIoOEeEGRM5UPk8j+k1R3aJ3tfxW0aQ/prWhYTOki7o2Yq7f4h5c/8vFbLrDp0Li6tl3RsMso/L65rQdS2axXTorblLEj17k5FTH4aXMsglicF4lI2luccdue9aL25nuFGOvX8o/0d0695IJHG2JD6jhz9K7DaQLGgRAFC8YHpV8MCoPKoX6AYr0X7YrHlzTeW/DhjHCtRX4kox0u7Cf8ADOR6kVK68Lm3WRGRhkMCCKp0v2gPw2udujFrdd7op8o7mUDkVqbvrfWIYzJJpqog/MXX/Stdc6HqWjTSNYkSQklwGBYA88BAasd9X1hGjnVIYwMsVRo245wMmuje23XE9zpF3dMojdVOzb277a9Phz0ZA1ql3OPGlnUSMx5G1/MBj35rH6A6eMmn3llKrKGLKGIK5Xc2CM1rNLv9U0f/AMI0BnjDHwyvmYe2Sfy4oMTXOkoLTW7GNBmKaQkofNjHfv6c1IfjLp8K2scnhgPuCBgPyjtmojrH+0UvLXUrqFpCH3CONWbaozxj3+tTX4oGS402J0jZmJDFQpZh2OMCg0vxAuFtdPsYIgY0lKeKEGC8ZU7l/WrP9vaP+GFr+DuSu3GdhL/9XethLp8ur6fFtiaCa1KsiuP7x0GFU/4atHVOoBDbHTl/EY27wi+Bntu9/wBKDw+G4W6t72zlR3iV28FXHKJyVXn7isboq9XT7LU0KL49srEt8u7OdozXSekLW5jh3XnhiRuSEXYF+n1rl/VfTFw2shIQ4Sdld8FhGyKwyrY47elBZ8M5Gs7yQXSbEuoyyg9iu7n/ALhXt0xZx51TUDGD4c8iR4HAHOGH1+tbP4u6E+y0ltQ+Y18MBMlvOR7fapd0hoYj0uO3k4ZkIc47s2fMf3oIl8L+l4ru3OoXP9rJK7gk89mKnitL110vBZajZmFfJK5LITuG77Vl6e+oaEzwLE1xbljs2jc/PO7HoMmtP1Muoyzw31zAWCN5I0DMwQ++PWg6T1z0tFcacURAjRqGRgPlA5NQ9NThbpkqUVHYOiqBjzhyMiup6PObm0jMqFC6YZT3HpXDZNBmbWBYKf7NZ/GVPy+HvBP+RoJxpfSLJoTxwqGmmhLHjzHevyZqJ6X1BaW1sNP1G0ZGXAdgilsj13CuwdSzSW1jM9sMvGh8NcZGQOBj1rm2oa/dz2iWkunkzy/LKqjw8eu4907+tB03phYPwkX4Rt0WMoc7vvzW3Wov8PdFey0+KGQ5dSxI9AWYsR/NSkUFaUpQKUpQKUpQKUpQKUpQKUpQKUpQKoarVKBVMVWqEcigj/VHT8d5GVKgSDlH9Vb3rlWnE2N5GLkFSjd8HBGe4967mc1F+semVvI9y+WRB5W9/oa0Ycuv5t6ZM+Hr+o9tQ1rb6k5uLa5a3kTyuyAAsvOA27v61bbPZ2CSgXBkmZSTK3mkx6Dj0rn2+a3dkDNG44cD1B4/artK057mYRRA7mxvY/lXPc/zWj8o9zPhl/SdaiPLI0jSpL2Yom7l2Lyf0oSexPr24rtGjaYlrEsUahQo7D1Pqa8en9Cjs4hHHyeNzn5mPuTW228j/P1rLly9eGzBh58yvoKUqiGlWrCAT9qvqldFrKD3ANWrjvgD07V6GqYoLQuO2B9hTYD6A/cVdt5zVQKC3YD3AP6ChUeoH7cVXFVoPMKF5AAz7CqmMf0j9hV2P0oR9aCh+tUZAecDI7H1q8ilBYyA9wD9xnmq4GPpVVH1zQDHYUFuM91FNqn0H7Cr6YoMTUA4ik8PG/Y2z0AbHFcc0Tp/V01FLx/DLkqsjZP90zAuAMd8V20jNAKC1l3Agjj296p4annaO2Ow7Vfj61XFBaPYVUDFVpigrSlKBSlKBSlKBSlKBSlKBSlKBSlKBVKrVKAKrSlBQ1aauqgWgiPVnSS3gDIRHIPz+n/qA71ndNdPpZRhQNzt8z+pb9fSpAVq0R1L9bTHPxTGGsW6XVWmKYqGlpVapQCuuq0pSgUpSgUpSgUpSgUpSgUpSgUpSgUpSgUpSgUpSgUpSgUpSgUpSgUpSgUpSgUpSgUpSg//2Q==;" parent="1" vertex="1">
          <mxGeometry x="265" y="780" width="59.38" height="20" as="geometry" />
        </mxCell>
        <mxCell id="71Pxt-I2d04INfhtHB3H-1" value="&lt;b&gt;&lt;font face=&quot;Verdana&quot;&gt;2.Access Token(&lt;font color=&quot;#ea6b66&quot;&gt;AT&lt;/font&gt;)&lt;/font&gt;&lt;/b&gt;" style="text;html=1;strokeColor=none;fillColor=none;align=center;verticalAlign=middle;whiteSpace=wrap;rounded=0;" vertex="1" parent="1">
          <mxGeometry x="110" y="60" width="160" height="30" as="geometry" />
        </mxCell>
      </root>
    </mxGraphModel>
  </diagram>
</mxfile>
